<?xml version="1.0" encoding="utf-8"?>
<!-- Generator: Adobe Illustrator 22.1.0, SVG Export Plug-In . SVG Version: 6.00 Build 0)  -->
<svg version="1.1" id="Laag_3" xmlns="http://www.w3.org/2000/svg" xmlns:xlink="http://www.w3.org/1999/xlink" x="0px" y="0px"
	 viewBox="0 0 24 24" style="enable-background:new 0 0 24 24;" xml:space="preserve">
<g>
	<path d="M23.9,20.8c0,1.7,0.3,2.5-1.1,2.5H9.7c-2.3,0-4.8-0.3-6.5-1.1c-2.4-1.1-3.1-2.8-3.1-5.1V6.3c0-2.2,1.2-3.9,3.5-5
		c1.8-0.9,4.1-0.6,6.6-0.6l2,0c1.4,0,1.9,0,1.9,1.4v0.4c0,1.4,0.4,2.6-1,2.6c-0.1,0,0.4,0-0.3,0c0.4,0-0.2,0-1.8,0
		C7.3,5,5.4,5.2,5.4,6.3v3.2h17.5c0.7,0,1.1,0,1.1,0.6c0,0.6,0,1,0,1.6c0,0.6,0,1.2,0,1.7c0,0.6-0.5,0.7-1.2,0.7H5.4V17
		c0,1.9,0.7,1.6,4.4,1.7h12.9C24.2,18.7,23.9,19.4,23.9,20.8z"/>
</g>
</svg>
